<svg xmlns="http://www.w3.org/2000/svg" xmlns:xlink="http://www.w3.org/1999/xlink" style="fill-rule: nonzero; stroke-linecap: round; stroke-linejoin: round; transform: scale(1,-1);" version="1.1" viewBox="          225.691544            45.374001          7366.381836          5600.616211" width="100%" height="100%" preserveAspectRatio="xMidYMid">
<style>
  .fn { font-family: Arial,Helvetica,sans-serif; }
  .fN { font-family: Arial,Helvetica,sans-serif; font-weight: bold;}
  .fr { font-family: Times,Times-Roman,Times New Roman,serif; }
  .fR { font-family: Times,Times-Roman,Times New Roman,serif; font-weight: bold;}
  .fi { font-family: Times,Times-Roman,Times New Roman,serif; font-style: italic;}
  .fI { font-family: Times,Times-Roman,Times New Roman,serif; font-style: italic; font-weight: bold;}
  .fs { font-family: Zapf-Chancery,Apple Chancery,URW Chancery L,cursive;}
  .fS { font-family: Zapf-Chancery,Apple Chancery,URW Chancery L,cursive;font-weight:bold}
  .fc { font-family: Arial Narrow,Helvetica Narrow,Arial,Helvetica,sans-serif;}
  .fC { font-family: Arial Narrow,Helvetica Narrow,Arial,Helvetica,sans-serif; font-weight:bold;}
</style>
<g style="color: rgb(0, 0, 0); fill: currentColor; stroke: currentColor; stroke-width: 8">

<path fill="none" d="M 742 576 l 5935 0 l 0 4607 l -5935 0 l 0 -4607 M 763 576 l 0 66 M 2741 576 l 0 33 M 3898 576 l 0 33  M 4719 576 l 0 33 M 5356 576 l 0 33 M 5877 576 l 0 33 M 6317 576 l 0 33 M 763 5117 l 0 66 M 2741 5150 l 0 33  M 3898 5150 l 0 33 M 4719 5150 l 0 33 M 5356 5150 l 0 33 M 5877 5150 l 0 33 M 6317 5150 l 0 33 "/>
<text transform="translate(718,403) scale(1,-1)"><tspan class="fn" style="font-size: 886%;">1</tspan></text>
<text transform="translate(2696,403) scale(1,-1)"><tspan class="fn" style="font-size: 886%;">2</tspan></text>
<text transform="translate(5311,403) scale(1,-1)"><tspan class="fn" style="font-size: 886%;">5</tspan></text>

<path fill="none" d="M 742 1004 l 33 0 M 742 1374 l 33 0 M 742 1637 l 33 0 M 742 1841 l 33 0 M 742 2007 l 33 0 M 742 2148 l 33 0  M 742 2270 l 33 0 M 742 2377 l 33 0 M 742 2473 l 66 0 M 742 3106 l 33 0 M 742 3476 l 33 0 M 742 3739 l 33 0  M 742 3943 l 33 0 M 742 4109 l 33 0 M 742 4250 l 33 0 M 742 4372 l 33 0 M 742 4479 l 33 0 M 742 4576 l 66 0  M 6644 1004 l 33 0 M 6644 1374 l 33 0 M 6644 1637 l 33 0 M 6644 1841 l 33 0 M 6644 2007 l 33 0 M 6644 2148 l 33 0  M 6644 2270 l 33 0 M 6644 2377 l 33 0 M 6611 2473 l 66 0 M 6644 3106 l 33 0 M 6644 3476 l 33 0 M 6644 3739 l 33 0  M 6644 3943 l 33 0 M 6644 4109 l 33 0 M 6644 4250 l 33 0 M 6644 4372 l 33 0 M 6644 4479 l 33 0 M 6611 4576 l 66 0  "/>
<text transform="translate(641,2330) scale(1,-1) rotate(-90)"><tspan class="fn" style="font-size: 886%;">10<tspan style="font-size: 60%;" dy="-0.6em">−3<tspan style="font-size: 166.667%;" dy="+0.36em"/></tspan></tspan></text>
<text transform="translate(641,4420) scale(1,-1) rotate(-90)"><tspan class="fn" style="font-size: 886%;">0.01</tspan></text>
</g>
<g style="color: rgb(0, 0, 0); fill: currentColor; stroke: currentColor; stroke-width: 4">
<defs>
<symbol id="M1" overflow="visible">
<circle r="1" fill="none" stroke-width="1"/>
</symbol>
</defs>
<use xlink:href="#M1" transform="translate(845, 4237) scale(4.430)"/>
<use xlink:href="#M1" transform="translate(1115, 3497) scale(4.430)"/>
<use xlink:href="#M1" transform="translate(1362, 3772) scale(4.430)"/>
<use xlink:href="#M1" transform="translate(1510, 3975) scale(4.430)"/>
<use xlink:href="#M1" transform="translate(1666, 3868) scale(4.430)"/>
<use xlink:href="#M1" transform="translate(1857, 3464) scale(4.430)"/>
<use xlink:href="#M1" transform="translate(2022, 4034) scale(4.430)"/>
<use xlink:href="#M1" transform="translate(2179, 3464) scale(4.430)"/>
<use xlink:href="#M1" transform="translate(2327, 4237) scale(4.430)"/>
<use xlink:href="#M1" transform="translate(2434, 4238) scale(4.430)"/>
<use xlink:href="#M1" transform="translate(2547, 3604) scale(4.430)"/>
<use xlink:href="#M1" transform="translate(2667, 4238) scale(4.430)"/>
<use xlink:href="#M1" transform="translate(2752, 4871) scale(4.430)"/>
<use xlink:href="#M1" transform="translate(2844, 3868) scale(4.430)"/>
<use xlink:href="#M1" transform="translate(2952, 4238) scale(4.430)"/>
<use xlink:href="#M1" transform="translate(3075, 3604) scale(4.430)"/>
<use xlink:href="#M1" transform="translate(3228, 3235) scale(4.430)"/>
<use xlink:href="#M1" transform="translate(3332, 4238) scale(4.430)"/>
<use xlink:href="#M1" transform="translate(3382, 4704) scale(4.430)"/>
<use xlink:href="#M1" transform="translate(3440, 3975) scale(4.430)"/>
<use xlink:href="#M1" transform="translate(3504, 4608) scale(4.430)"/>
<use xlink:href="#M1" transform="translate(3568, 4238) scale(4.430)"/>
<use xlink:href="#M1" transform="translate(3637, 4238) scale(4.430)"/>
<use xlink:href="#M1" transform="translate(3712, 4034) scale(4.430)"/>
<use xlink:href="#M1" transform="translate(3778, 3975) scale(4.430)"/>
<use xlink:href="#M1" transform="translate(3835, 4608) scale(4.430)"/>
<use xlink:href="#M1" transform="translate(3885, 4501) scale(4.430)"/>
<use xlink:href="#M1" transform="translate(3926, 4704) scale(4.430)"/>
<use xlink:href="#M1" transform="translate(3981, 4034) scale(4.430)"/>
<use xlink:href="#M1" transform="translate(4054, 3605) scale(4.430)"/>
<use xlink:href="#M1" transform="translate(4132, 4071) scale(4.430)"/>
<use xlink:href="#M1" transform="translate(4189, 4238) scale(4.430)"/>
<use xlink:href="#M1" transform="translate(4232, 3975) scale(4.430)"/>
<use xlink:href="#M1" transform="translate(4293, 4378) scale(4.430)"/>
<use xlink:href="#M1" transform="translate(4371, 3464) scale(4.430)"/>
<use xlink:href="#M1" transform="translate(4464, 3235) scale(4.430)"/>
<use xlink:href="#M1" transform="translate(4531, 4501) scale(4.430)"/>
<use xlink:href="#M1" transform="translate(4575, 4034) scale(4.430)"/>
<use xlink:href="#M1" transform="translate(4630, 4238) scale(4.430)"/>
<use xlink:href="#M1" transform="translate(4678, 3975) scale(4.430)"/>
<use xlink:href="#M1" transform="translate(4766, 3673) scale(4.430)"/>
<use xlink:href="#M1" transform="translate(4857, 4034) scale(4.430)"/>
<use xlink:href="#M1" transform="translate(4916, 3931) scale(4.430)"/>
<use xlink:href="#M1" transform="translate(5026, 2972) scale(4.430)"/>
<use xlink:href="#M1" transform="translate(5136, 3605) scale(4.430)"/>
<use xlink:href="#M1" transform="translate(5211, 3498) scale(4.430)"/>
<use xlink:href="#M1" transform="translate(5302, 2971) scale(4.430)"/>
<use xlink:href="#M1" transform="translate(5386, 3604) scale(4.430)"/>
<use xlink:href="#M1" transform="translate(5439, 3771) scale(4.430)"/>
<use xlink:href="#M1" transform="translate(5479, 4034) scale(4.430)"/>
<use xlink:href="#M1" transform="translate(5596, 2301) scale(4.430)"/>
<use xlink:href="#M1" transform="translate(5735, 2972) scale(4.430)"/>
<use xlink:href="#M1" transform="translate(5887, 2105) scale(4.430)"/>
<use xlink:href="#M1" transform="translate(6036, 2899) scale(4.430)"/>
<use xlink:href="#M1" transform="translate(6097, 3868) scale(4.430)"/>
<use xlink:href="#M1" transform="translate(6155, 2972) scale(4.430)"/>
<use xlink:href="#M1" transform="translate(6214, 3727) scale(4.430)"/>
<use xlink:href="#M1" transform="translate(6251, 4034) scale(4.430)"/>
<use xlink:href="#M1" transform="translate(6290, 3342) scale(4.430)"/>
<use xlink:href="#M1" transform="translate(6335, 3930) scale(4.430)"/>
<use xlink:href="#M1" transform="translate(6431, 2528) scale(4.430)"/>
<use xlink:href="#M1" transform="translate(6592, 1704) scale(4.430)"/>

<path fill="none" d="M 742 4237 l 202 0 M 944 3497 l 332 0 M 1276 3772 l 169 0 M 1445 3975 l 128 0 M 1573 3868 l 183 0 M 1756 3464 l 199 0  M 1955 4034 l 134 0 M 2089 3464 l 177 0 M 2266 4237 l 121 0 M 2387 4238 l 93 0 M 2480 3604 l 133 0 M 2613 4238 l 107 0  M 2720 4871 l 63 0 M 2783 3868 l 120 0 M 2903 4238 l 97 0 M 3000 3604 l 148 0 M 3148 3235 l 158 0 M 3306 4238 l 51 0  M 3357 4704 l 50 0 M 3407 3975 l 65 0 M 3472 4608 l 64 0 M 3536 4238 l 63 0 l 76 0 M 3675 4034 l 74 0  M 3749 3975 l 58 0 M 3807 4608 l 57 0 M 3864 4501 l 41 0 M 3905 4704 l 42 0 M 3947 4034 l 67 0 M 4014 3605 l 79 0  M 4093 4071 l 77 0 M 4170 4238 l 38 0 M 4208 3975 l 49 0 M 4257 4378 l 73 0 M 4330 3464 l 82 0 M 4412 3235 l 102 0  M 4514 4501 l 34 0 M 4548 4034 l 55 0 M 4603 4238 l 53 0 M 4656 3975 l 43 0 M 4699 3673 l 133 0 M 4832 4034 l 50 0  M 4882 3931 l 68 0 M 4950 2972 l 149 0 M 5099 3605 l 72 0 M 5171 3498 l 79 0 M 5250 2971 l 102 0 M 5352 3604 l 66 0  M 5418 3771 l 41 0 M 5459 4034 l 40 0 M 5499 2301 l 191 0 M 5690 2972 l 88 0 M 5778 2105 l 215 0 M 5993 2899 l 85 0  M 6078 3868 l 39 0 M 6117 2972 l 75 0 M 6192 3727 l 43 0 M 6235 4034 l 31 0 M 6266 3342 l 48 0 M 6314 3930 l 41 0  M 6355 2528 l 149 0 M 6504 1704 l 173 0 M 845 3696 l 0 879 M 1115 2864 l 0 1003 M 1362 2985 l 0 1203 M 1510 3189 l 0 1202  M 1666 3235 l 0 1003 M 1857 2678 l 0 1202 M 2022 3400 l 0 1004 M 2179 2678 l 0 1202 M 2327 3695 l 0 880 M 2434 3605 l 0 1003  M 2547 2816 l 0 1204 M 2667 3697 l 0 878 M 2752 4391 l 0 792 M 2844 3235 l 0 1003 M 2952 3696 l 0 879 M 3075 2971 l 0 1004  M 3228 2449 l 0 1202 M 3332 3452 l 0 1202 M 3382 4163 l 0 879 M 3440 3189 l 0 1202 M 3504 4129 l 0 791 M 3568 3605 l 0 1003  M 3637 3697 l 0 878 M 3712 3401 l 0 1003 M 3778 3189 l 0 1202 M 3835 4129 l 0 792 M 3885 3868 l 0 1003 M 3926 4163 l 0 879  M 3981 3401 l 0 1003 M 4054 2818 l 0 1203 M 4132 3530 l 0 879 M 4189 3451 l 0 1203 M 4232 3188 l 0 1203 M 4293 3945 l 0 726  M 4371 2677 l 0 1203 M 4464 2448 l 0 1203 M 4531 3868 l 0 1003 M 4575 3401 l 0 1003 M 4630 3697 l 0 878 M 4678 3188 l 0 1203  M 4766 3239 l 0 726 M 4857 3401 l 0 1003 M 4916 3389 l 0 879 M 5026 2340 l 0 1002 M 5136 2972 l 0 1003 M 5211 2865 l 0 1003  M 5302 2184 l 0 1204 M 5386 2971 l 0 1004 M 5439 2984 l 0 1203 M 5479 3401 l 0 1003 M 5596 1514 l 0 1204 M 5735 2185 l 0 1203  M 5887 1318 l 0 1203 M 6036 2112 l 0 1203 M 6097 3235 l 0 1003 M 6155 2185 l 0 1203 M 6214 3094 l 0 1003 M 6251 3401 l 0 1003  M 6290 2556 l 0 1202 M 6335 3389 l 0 879 M 6431 1895 l 0 1004 M 6592 576 l 0 1617 "/>
</g>
<g style="color: rgb(0, 0, 0); fill: currentColor; stroke: currentColor; stroke-width: 8">

<path fill="none" d="M 742 2162 l 202 0 l 0 724 l 332 0 l 0 538 l 169 0 l 0 229 l 128 0 l 0 179 l 183 0 l 0 257  l 199 0 l 0 147 l 134 0 l 0 117 l 177 0 l 0 150 l 121 0 l 0 95 l 93 0 l 0 -57 l 133 0  l 0 -85 l 107 0 l 0 -48 l 63 0 l 0 -182 l 120 0 l 0 -179 l 97 0 l 0 52 l 148 0 l 0 86  l 158 0 l 0 7 l 51 0 l 0 -21 l 50 0 l 0 -21 l 65 0 l 0 3 l 64 0 l 0 14 l 63 0  l 0 9 l 76 0 l 0 -3 l 74 0 l 0 -11 l 58 0 l 0 -12 l 57 0 l 0 -5 l 41 0 l 0 -4  l 42 0 l 0 -8 l 67 0 l 0 -22 l 79 0 l 0 -19 l 77 0 l 0 -10 l 38 0 l 0 -9 l 49 0  l 0 -15 l 73 0 l 0 -22 l 82 0 l 0 -30 l 102 0 l 0 -28 l 34 0 l 0 -17 l 55 0 l 0 -22  l 53 0 l 0 -20 l 43 0 l 0 -43 l 133 0 l 0 -50 l 50 0 l 0 -36 l 68 0 l 0 -72 l 149 0  l 0 -83 l 72 0 l 0 -62 l 79 0 l 0 -84 l 102 0 l 0 -85 l 66 0 l 0 -59 l 41 0 l 0 -49  l 40 0 l 0 -150 l 191 0 l 0 -196 l 88 0 l 0 -223 l 215 0 l 0 -249 l 85 0 l 0 -117 l 39 0  l 0 -119 l 75 0 l 0 -134 l 43 0 l 0 -89 l 31 0 l 0 -97 l 48 0 l 0 -118 l 41 0 l 0 -265  l 149 0 l 0 -470 l 173 0 M 742 2162 l 202 0 M 944 2886 l 332 0 M 1276 3424 l 169 0 M 1445 3653 l 128 0  M 1573 3832 l 183 0 M 1756 4089 l 199 0 M 1955 4236 l 134 0 M 2089 4353 l 177 0 M 2266 4503 l 121 0 M 2387 4598 l 93 0  M 2480 4541 l 133 0 M 2613 4456 l 107 0 M 2720 4408 l 63 0 M 2783 4226 l 120 0 M 2903 4047 l 97 0 M 3000 4099 l 148 0  M 3148 4185 l 158 0 M 3306 4192 l 51 0 M 3357 4171 l 50 0 M 3407 4150 l 65 0 M 3472 4153 l 64 0 M 3536 4167 l 63 0  M 3599 4176 l 76 0 M 3675 4173 l 74 0 M 3749 4162 l 58 0 M 3807 4150 l 57 0 M 3864 4145 l 41 0 M 3905 4141 l 42 0  M 3947 4133 l 67 0 M 4014 4111 l 79 0 M 4093 4092 l 77 0 M 4170 4082 l 38 0 M 4208 4073 l 49 0 M 4257 4058 l 73 0  M 4330 4036 l 82 0 M 4412 4006 l 102 0 M 4514 3978 l 34 0 M 4548 3961 l 55 0 M 4603 3939 l 53 0 M 4656 3919 l 43 0  M 4699 3876 l 133 0 M 4832 3826 l 50 0 M 4882 3790 l 68 0 M 4950 3718 l 149 0 M 5099 3635 l 72 0 M 5171 3573 l 79 0  M 5250 3489 l 102 0 M 5352 3404 l 66 0 M 5418 3345 l 41 0 M 5459 3296 l 40 0 M 5499 3146 l 191 0 M 5690 2950 l 88 0  M 5778 2727 l 215 0 M 5993 2478 l 85 0 M 6078 2361 l 39 0 M 6117 2242 l 75 0 M 6192 2108 l 43 0 M 6235 2019 l 31 0  M 6266 1922 l 48 0 M 6314 1804 l 41 0 M 6355 1539 l 149 0 M 6504 1069 l 173 0 M 845 2162 l 0 0 M 1115 2886 l 0 0  M 1362 3424 l 0 0 M 1510 3653 l 0 0 M 1666 3832 l 0 0 M 1857 4089 l 0 0 M 2022 4236 l 0 0 M 2179 4353 l 0 0  M 2327 4503 l 0 0 M 2434 4598 l 0 0 M 2547 4541 l 0 0 M 2667 4456 l 0 0 M 2752 4408 l 0 0 M 2844 4226 l 0 0  M 2952 4047 l 0 0 M 3075 4099 l 0 0 M 3228 4185 l 0 0 M 3332 4192 l 0 0 M 3382 4171 l 0 0 M 3440 4150 l 0 0  M 3504 4153 l 0 0 M 3568 4167 l 0 0 M 3637 4176 l 0 0 M 3712 4173 l 0 0 M 3778 4162 l 0 0 M 3835 4150 l 0 0  M 3885 4145 l 0 0 M 3926 4141 l 0 0 M 3981 4133 l 0 0 M 4054 4111 l 0 0 M 4132 4092 l 0 0 M 4189 4082 l 0 0  M 4232 4073 l 0 0 M 4293 4058 l 0 0 M 4371 4036 l 0 0 M 4464 4006 l 0 0 M 4531 3978 l 0 0 M 4575 3961 l 0 0  M 4630 3939 l 0 0 M 4678 3919 l 0 0 M 4766 3876 l 0 0 M 4857 3826 l 0 0 M 4916 3790 l 0 0 M 5026 3718 l 0 0  M 5136 3635 l 0 0 M 5211 3573 l 0 0 M 5302 3489 l 0 0 M 5386 3404 l 0 0 M 5439 3345 l 0 0 M 5479 3296 l 0 0  M 5596 3146 l 0 0 M 5735 2950 l 0 0 M 5887 2727 l 0 0 M 6036 2478 l 0 0 M 6097 2361 l 0 0 M 6155 2242 l 0 0  M 6214 2108 l 0 0 M 6251 2019 l 0 0 M 6290 1922 l 0 0 M 6335 1804 l 0 0 M 6431 1539 l 0 0 M 6592 1069 l 0 0  "/>
<text transform="translate(370,2317) scale(1,-1) rotate(-90)"><tspan class="fn" style="font-size: 886%;">counts s<tspan style="font-size: 60%;" dy="-0.6em">−1<tspan style="font-size: 166.667%;" dy="+0.36em"> keV<tspan style="font-size: 60%;" dy="-0.6em">−1<tspan style="font-size: 166.667%;" dy="+0.36em"/></tspan></tspan></tspan></tspan></text>
<text transform="translate(3255,215) scale(1,-1)"><tspan class="fn" style="font-size: 886%;">Energy (keV)</tspan></text>
<text transform="translate(2841,5442) scale(1,-1)"><tspan class="fn" style="font-size: 886%;"><tspan class="fR">data and folded model</tspan></tspan></text>
</g>
<g style="color: rgb(0, 0, 0); fill: currentColor; stroke: currentColor; stroke-width: 4">
<text transform="translate(6387,46) scale(1,-1)"><tspan class="fn" style="font-size: 531.6%;">root 30−Jul−2025 10:35</tspan></text>
</g>
<!-- _PGPLOT_SVG_ATEND: viewBox="          225.691544            45.374001          7366.381836          5600.616211" -->
</svg>