<svg xmlns="http://www.w3.org/2000/svg" xmlns:xlink="http://www.w3.org/1999/xlink" style="fill-rule: nonzero; stroke-linecap: round; stroke-linejoin: round; transform: scale(1,-1);" version="1.1" viewBox="          225.691483            45.374001          7366.381836          5600.615723" width="100%" height="100%" preserveAspectRatio="xMidYMid">
<style>
  .fn { font-family: Arial,Helvetica,sans-serif; }
  .fN { font-family: Arial,Helvetica,sans-serif; font-weight: bold;}
  .fr { font-family: Times,Times-Roman,Times New Roman,serif; }
  .fR { font-family: Times,Times-Roman,Times New Roman,serif; font-weight: bold;}
  .fi { font-family: Times,Times-Roman,Times New Roman,serif; font-style: italic;}
  .fI { font-family: Times,Times-Roman,Times New Roman,serif; font-style: italic; font-weight: bold;}
  .fs { font-family: Zapf-Chancery,Apple Chancery,URW Chancery L,cursive;}
  .fS { font-family: Zapf-Chancery,Apple Chancery,URW Chancery L,cursive;font-weight:bold}
  .fc { font-family: Arial Narrow,Helvetica Narrow,Arial,Helvetica,sans-serif;}
  .fC { font-family: Arial Narrow,Helvetica Narrow,Arial,Helvetica,sans-serif; font-weight:bold;}
</style>
<g style="color: rgb(0, 0, 0); fill: currentColor; stroke: currentColor; stroke-width: 8">

<path fill="none" d="M 742 576 l 5935 0 l 0 4607 l -5935 0 l 0 -4607 M 747 576 l 0 33 M 1102 576 l 0 33 M 1409 576 l 0 33  M 1680 576 l 0 33 M 1922 576 l 0 66 M 3517 576 l 0 33 M 4450 576 l 0 33 M 5112 576 l 0 33 M 5625 576 l 0 33  M 6045 576 l 0 33 M 6399 576 l 0 33 M 747 5150 l 0 33 M 1102 5150 l 0 33 M 1409 5150 l 0 33 M 1680 5150 l 0 33  M 1922 5117 l 0 66 M 3517 5150 l 0 33 M 4450 5150 l 0 33 M 5112 5150 l 0 33 M 5625 5150 l 0 33 M 6045 5150 l 0 33  M 6399 5150 l 0 33 "/>
<text transform="translate(1878,403) scale(1,-1)"><tspan class="fn" style="font-size: 886%;">1</tspan></text>
<text transform="translate(3472,403) scale(1,-1)"><tspan class="fn" style="font-size: 886%;">2</tspan></text>
<text transform="translate(5580,403) scale(1,-1)"><tspan class="fn" style="font-size: 886%;">5</tspan></text>

<path fill="none" d="M 742 621 l 33 0 M 742 677 l 33 0 M 742 723 l 33 0 M 742 761 l 33 0 M 742 795 l 33 0 M 742 824 l 33 0  M 742 851 l 66 0 M 742 1024 l 33 0 M 742 1125 l 33 0 M 742 1197 l 33 0 M 742 1253 l 33 0 M 742 1299 l 33 0  M 742 1337 l 33 0 M 742 1371 l 33 0 M 742 1400 l 33 0 M 742 1427 l 66 0 M 742 1600 l 33 0 M 742 1701 l 33 0  M 742 1773 l 33 0 M 742 1829 l 33 0 M 742 1875 l 33 0 M 742 1913 l 33 0 M 742 1947 l 33 0 M 742 1976 l 33 0  M 742 2002 l 66 0 M 742 2176 l 33 0 M 742 2277 l 33 0 M 742 2349 l 33 0 M 742 2405 l 33 0 M 742 2451 l 33 0  M 742 2489 l 33 0 M 742 2523 l 33 0 M 742 2552 l 33 0 M 742 2578 l 66 0 M 742 2752 l 33 0 M 742 2853 l 33 0  M 742 2925 l 33 0 M 742 2981 l 33 0 M 742 3026 l 33 0 M 742 3065 l 33 0 M 742 3098 l 33 0 M 742 3128 l 33 0  M 742 3154 l 66 0 M 742 3328 l 33 0 M 742 3429 l 33 0 M 742 3501 l 33 0 M 742 3557 l 33 0 M 742 3602 l 33 0  M 742 3641 l 33 0 M 742 3674 l 33 0 M 742 3704 l 33 0 M 742 3730 l 66 0 M 742 3903 l 33 0 M 742 4005 l 33 0  M 742 4077 l 33 0 M 742 4133 l 33 0 M 742 4178 l 33 0 M 742 4217 l 33 0 M 742 4250 l 33 0 M 742 4280 l 33 0  M 742 4306 l 66 0 M 742 4479 l 33 0 M 742 4581 l 33 0 M 742 4653 l 33 0 M 742 4709 l 33 0 M 742 4754 l 33 0  M 742 4793 l 33 0 M 742 4826 l 33 0 M 742 4856 l 33 0 M 742 4882 l 66 0 M 742 5055 l 33 0 M 742 5157 l 33 0  M 6644 621 l 33 0 M 6644 677 l 33 0 M 6644 723 l 33 0 M 6644 761 l 33 0 M 6644 795 l 33 0 M 6644 824 l 33 0  M 6611 851 l 66 0 M 6644 1024 l 33 0 M 6644 1125 l 33 0 M 6644 1197 l 33 0 M 6644 1253 l 33 0 M 6644 1299 l 33 0  M 6644 1337 l 33 0 M 6644 1371 l 33 0 M 6644 1400 l 33 0 M 6611 1427 l 66 0 M 6644 1600 l 33 0 M 6644 1701 l 33 0  M 6644 1773 l 33 0 M 6644 1829 l 33 0 M 6644 1875 l 33 0 M 6644 1913 l 33 0 M 6644 1947 l 33 0 M 6644 1976 l 33 0  M 6611 2002 l 66 0 M 6644 2176 l 33 0 M 6644 2277 l 33 0 M 6644 2349 l 33 0 M 6644 2405 l 33 0 M 6644 2451 l 33 0  M 6644 2489 l 33 0 M 6644 2523 l 33 0 M 6644 2552 l 33 0 M 6611 2578 l 66 0 M 6644 2752 l 33 0 M 6644 2853 l 33 0  M 6644 2925 l 33 0 M 6644 2981 l 33 0 M 6644 3026 l 33 0 M 6644 3065 l 33 0 M 6644 3098 l 33 0 M 6644 3128 l 33 0  M 6611 3154 l 66 0 M 6644 3328 l 33 0 M 6644 3429 l 33 0 M 6644 3501 l 33 0 M 6644 3557 l 33 0 M 6644 3602 l 33 0  M 6644 3641 l 33 0 M 6644 3674 l 33 0 M 6644 3704 l 33 0 M 6611 3730 l 66 0 M 6644 3903 l 33 0 M 6644 4005 l 33 0  M 6644 4077 l 33 0 M 6644 4133 l 33 0 M 6644 4178 l 33 0 M 6644 4217 l 33 0 M 6644 4250 l 33 0 M 6644 4280 l 33 0  M 6611 4306 l 66 0 M 6644 4479 l 33 0 M 6644 4581 l 33 0 M 6644 4653 l 33 0 M 6644 4709 l 33 0 M 6644 4754 l 33 0  M 6644 4793 l 33 0 M 6644 4826 l 33 0 M 6644 4856 l 33 0 M 6611 4882 l 66 0 M 6644 5055 l 33 0 M 6644 5157 l 33 0  "/>
<text transform="translate(641,707) scale(1,-1) rotate(-90)"><tspan class="fn" style="font-size: 886%;">10<tspan style="font-size: 60%;" dy="-0.6em">−9<tspan style="font-size: 166.667%;" dy="+0.36em"/></tspan></tspan></text>
<text transform="translate(641,1283) scale(1,-1) rotate(-90)"><tspan class="fn" style="font-size: 886%;">10<tspan style="font-size: 60%;" dy="-0.6em">−8<tspan style="font-size: 166.667%;" dy="+0.36em"/></tspan></tspan></text>
<text transform="translate(641,1859) scale(1,-1) rotate(-90)"><tspan class="fn" style="font-size: 886%;">10<tspan style="font-size: 60%;" dy="-0.6em">−7<tspan style="font-size: 166.667%;" dy="+0.36em"/></tspan></tspan></text>
<text transform="translate(641,2435) scale(1,-1) rotate(-90)"><tspan class="fn" style="font-size: 886%;">10<tspan style="font-size: 60%;" dy="-0.6em">−6<tspan style="font-size: 166.667%;" dy="+0.36em"/></tspan></tspan></text>
<text transform="translate(641,3011) scale(1,-1) rotate(-90)"><tspan class="fn" style="font-size: 886%;">10<tspan style="font-size: 60%;" dy="-0.6em">−5<tspan style="font-size: 166.667%;" dy="+0.36em"/></tspan></tspan></text>
<text transform="translate(641,3586) scale(1,-1) rotate(-90)"><tspan class="fn" style="font-size: 886%;">10<tspan style="font-size: 60%;" dy="-0.6em">−4<tspan style="font-size: 166.667%;" dy="+0.36em"/></tspan></tspan></text>
<text transform="translate(641,4162) scale(1,-1) rotate(-90)"><tspan class="fn" style="font-size: 886%;">10<tspan style="font-size: 60%;" dy="-0.6em">−3<tspan style="font-size: 166.667%;" dy="+0.36em"/></tspan></tspan></text>
<text transform="translate(641,4726) scale(1,-1) rotate(-90)"><tspan class="fn" style="font-size: 886%;">0.01</tspan></text>
</g>
<g style="color: rgb(0, 0, 0); fill: currentColor; stroke: currentColor; stroke-width: 4">
<defs>
<symbol id="M1" overflow="visible">
<circle r="1" fill="none" stroke-width="1"/>
</symbol>
</defs>
<use xlink:href="#M1" transform="translate(904, 4443) scale(4.430)"/>
<use xlink:href="#M1" transform="translate(1311, 4363) scale(4.430)"/>
<use xlink:href="#M1" transform="translate(1618, 4718) scale(4.430)"/>
<use xlink:href="#M1" transform="translate(1748, 4918) scale(4.430)"/>
<use xlink:href="#M1" transform="translate(1855, 4862) scale(4.430)"/>
<use xlink:href="#M1" transform="translate(1956, 5065) scale(4.430)"/>
<use xlink:href="#M1" transform="translate(2053, 5065) scale(4.430)"/>
<use xlink:href="#M1" transform="translate(2147, 5103) scale(4.430)"/>
<use xlink:href="#M1" transform="translate(2236, 5050) scale(4.430)"/>
<use xlink:href="#M1" transform="translate(2322, 5115) scale(4.430)"/>
<use xlink:href="#M1" transform="translate(2406, 4891) scale(4.430)"/>
<use xlink:href="#M1" transform="translate(2486, 5050) scale(4.430)"/>
<use xlink:href="#M1" transform="translate(2563, 4918) scale(4.430)"/>
<use xlink:href="#M1" transform="translate(2638, 5078) scale(4.430)"/>
<use xlink:href="#M1" transform="translate(2711, 5103) scale(4.430)"/>
<use xlink:href="#M1" transform="translate(2782, 5091) scale(4.430)"/>
<use xlink:href="#M1" transform="translate(2850, 5137) scale(4.430)"/>
<use xlink:href="#M1" transform="translate(2916, 5065) scale(4.430)"/>
<use xlink:href="#M1" transform="translate(2981, 5065) scale(4.430)"/>
<use xlink:href="#M1" transform="translate(3044, 5019) scale(4.430)"/>
<use xlink:href="#M1" transform="translate(3105, 4918) scale(4.430)"/>
<use xlink:href="#M1" transform="translate(3164, 4941) scale(4.430)"/>
<use xlink:href="#M1" transform="translate(3222, 4983) scale(4.430)"/>
<use xlink:href="#M1" transform="translate(3279, 5115) scale(4.430)"/>
<use xlink:href="#M1" transform="translate(3334, 5078) scale(4.430)"/>
<use xlink:href="#M1" transform="translate(3388, 5035) scale(4.430)"/>
<use xlink:href="#M1" transform="translate(3441, 4828) scale(4.430)"/>
<use xlink:href="#M1" transform="translate(3492, 5137) scale(4.430)"/>
<use xlink:href="#M1" transform="translate(3542, 5103) scale(4.430)"/>
<use xlink:href="#M1" transform="translate(3592, 5019) scale(4.430)"/>
<use xlink:href="#M1" transform="translate(3640, 4862) scale(4.430)"/>
<use xlink:href="#M1" transform="translate(3687, 4828) scale(4.430)"/>
<use xlink:href="#M1" transform="translate(3741, 4718) scale(4.430)"/>
<use xlink:href="#M1" transform="translate(3794, 4891) scale(4.430)"/>
<use xlink:href="#M1" transform="translate(3838, 4790) scale(4.430)"/>
<use xlink:href="#M1" transform="translate(3882, 4744) scale(4.430)"/>
<use xlink:href="#M1" transform="translate(3924, 4862) scale(4.430)"/>
<use xlink:href="#M1" transform="translate(3966, 4963) scale(4.430)"/>
<use xlink:href="#M1" transform="translate(4007, 5035) scale(4.430)"/>
<use xlink:href="#M1" transform="translate(4047, 4744) scale(4.430)"/>
<use xlink:href="#M1" transform="translate(4094, 4819) scale(4.430)"/>
<use xlink:href="#M1" transform="translate(4139, 4918) scale(4.430)"/>
<use xlink:href="#M1" transform="translate(4177, 5035) scale(4.430)"/>
<use xlink:href="#M1" transform="translate(4215, 4828) scale(4.430)"/>
<use xlink:href="#M1" transform="translate(4252, 4918) scale(4.430)"/>
<use xlink:href="#M1" transform="translate(4288, 4744) scale(4.430)"/>
<use xlink:href="#M1" transform="translate(4324, 4918) scale(4.430)"/>
<use xlink:href="#M1" transform="translate(4359, 4790) scale(4.430)"/>
<use xlink:href="#M1" transform="translate(4394, 4744) scale(4.430)"/>
<use xlink:href="#M1" transform="translate(4428, 4891) scale(4.430)"/>
<use xlink:href="#M1" transform="translate(4461, 4744) scale(4.430)"/>
<use xlink:href="#M1" transform="translate(4495, 4744) scale(4.430)"/>
<use xlink:href="#M1" transform="translate(4527, 4918) scale(4.430)"/>
<use xlink:href="#M1" transform="translate(4559, 4918) scale(4.430)"/>
<use xlink:href="#M1" transform="translate(4597, 4718) scale(4.430)"/>
<use xlink:href="#M1" transform="translate(4643, 4489) scale(4.430)"/>
<use xlink:href="#M1" transform="translate(4684, 4790) scale(4.430)"/>
<use xlink:href="#M1" transform="translate(4714, 4963) scale(4.430)"/>
<use xlink:href="#M1" transform="translate(4749, 4718) scale(4.430)"/>
<use xlink:href="#M1" transform="translate(4788, 4756) scale(4.430)"/>
<use xlink:href="#M1" transform="translate(4826, 4718) scale(4.430)"/>
<use xlink:href="#M1" transform="translate(4869, 4561) scale(4.430)"/>
<use xlink:href="#M1" transform="translate(4906, 4744) scale(4.430)"/>
<use xlink:href="#M1" transform="translate(4933, 4744) scale(4.430)"/>
<use xlink:href="#M1" transform="translate(4960, 4790) scale(4.430)"/>
<use xlink:href="#M1" transform="translate(4991, 4672) scale(4.430)"/>
<use xlink:href="#M1" transform="translate(5031, 4489) scale(4.430)"/>
<use xlink:href="#M1" transform="translate(5065, 4790) scale(4.430)"/>
<use xlink:href="#M1" transform="translate(5091, 4688) scale(4.430)"/>
<use xlink:href="#M1" transform="translate(5116, 4790) scale(4.430)"/>
<use xlink:href="#M1" transform="translate(5145, 4756) scale(4.430)"/>
<use xlink:href="#M1" transform="translate(5182, 4734) scale(4.430)"/>
<use xlink:href="#M1" transform="translate(5223, 4734) scale(4.430)"/>
<use xlink:href="#M1" transform="translate(5254, 4828) scale(4.430)"/>
<use xlink:href="#M1" transform="translate(5278, 4862) scale(4.430)"/>
<use xlink:href="#M1" transform="translate(5309, 4616) scale(4.430)"/>
<use xlink:href="#M1" transform="translate(5343, 4544) scale(4.430)"/>
<use xlink:href="#M1" transform="translate(5377, 4662) scale(4.430)"/>
<use xlink:href="#M1" transform="translate(5407, 4744) scale(4.430)"/>
<use xlink:href="#M1" transform="translate(5433, 4718) scale(4.430)"/>
<use xlink:href="#M1" transform="translate(5462, 4756) scale(4.430)"/>
<use xlink:href="#M1" transform="translate(5487, 4744) scale(4.430)"/>
<use xlink:href="#M1" transform="translate(5526, 4499) scale(4.430)"/>
<use xlink:href="#M1" transform="translate(5581, 4583) scale(4.430)"/>
<use xlink:href="#M1" transform="translate(5622, 4718) scale(4.430)"/>
<use xlink:href="#M1" transform="translate(5649, 4672) scale(4.430)"/>
<use xlink:href="#M1" transform="translate(5672, 4828) scale(4.430)"/>
<use xlink:href="#M1" transform="translate(5692, 4689) scale(4.430)"/>
<use xlink:href="#M1" transform="translate(5724, 4578) scale(4.430)"/>
<use xlink:href="#M1" transform="translate(5762, 4561) scale(4.430)"/>
<use xlink:href="#M1" transform="translate(5794, 4617) scale(4.430)"/>
<use xlink:href="#M1" transform="translate(5825, 4561) scale(4.430)"/>
<use xlink:href="#M1" transform="translate(5849, 4744) scale(4.430)"/>
<use xlink:href="#M1" transform="translate(5876, 4571) scale(4.430)"/>
<use xlink:href="#M1" transform="translate(5915, 4404) scale(4.430)"/>
<use xlink:href="#M1" transform="translate(5962, 4413) scale(4.430)"/>
<use xlink:href="#M1" transform="translate(6000, 4616) scale(4.430)"/>
<use xlink:href="#M1" transform="translate(6048, 4378) scale(4.430)"/>
<use xlink:href="#M1" transform="translate(6114, 4291) scale(4.430)"/>
<use xlink:href="#M1" transform="translate(6157, 4489) scale(4.430)"/>
<use xlink:href="#M1" transform="translate(6194, 4469) scale(4.430)"/>
<use xlink:href="#M1" transform="translate(6228, 4718) scale(4.430)"/>
<use xlink:href="#M1" transform="translate(6259, 4499) scale(4.430)"/>
<use xlink:href="#M1" transform="translate(6289, 4544) scale(4.430)"/>
<use xlink:href="#M1" transform="translate(6326, 4503) scale(4.430)"/>
<use xlink:href="#M1" transform="translate(6368, 4515) scale(4.430)"/>
<use xlink:href="#M1" transform="translate(6397, 4443) scale(4.430)"/>
<use xlink:href="#M1" transform="translate(6433, 4341) scale(4.430)"/>
<use xlink:href="#M1" transform="translate(6477, 4315) scale(4.430)"/>
<use xlink:href="#M1" transform="translate(6546, 4213) scale(4.430)"/>
<use xlink:href="#M1" transform="translate(6634, 3864) scale(4.430)"/>

<path fill="none" d="M 742 4443 l 314 0 M 1056 4363 l 484 0 M 1540 4718 l 153 0 M 1693 4918 l 109 0 M 1802 4862 l 104 0 M 1906 5065 l 99 0  l 95 0 M 2100 5103 l 92 0 M 2192 5050 l 88 0 M 2280 5115 l 84 0 M 2364 4891 l 82 0 M 2446 5050 l 79 0  M 2525 4918 l 76 0 M 2601 5078 l 74 0 M 2675 5103 l 72 0 M 2747 5091 l 69 0 M 2816 5137 l 67 0 M 2883 5065 l 66 0  l 63 0 M 3012 5019 l 62 0 M 3074 4918 l 61 0 M 3135 4941 l 58 0 M 3193 4983 l 58 0 M 3251 5115 l 55 0  M 3306 5078 l 55 0 M 3361 5035 l 53 0 M 3414 4828 l 52 0 M 3466 5137 l 51 0 M 3517 5103 l 50 0 M 3567 5019 l 49 0  M 3616 4862 l 48 0 M 3664 4828 l 47 0 M 3711 4718 l 60 0 M 3771 4891 l 45 0 M 3816 4790 l 44 0 M 3860 4744 l 43 0  M 3903 4862 l 42 0 M 3945 4963 l 42 0 M 3987 5035 l 40 0 M 4027 4744 l 40 0 M 4067 4819 l 53 0 M 4120 4918 l 38 0  M 4158 5035 l 38 0 M 4196 4828 l 37 0 M 4233 4918 l 37 0 M 4270 4744 l 36 0 M 4306 4918 l 35 0 M 4341 4790 l 35 0  M 4376 4744 l 35 0 M 4411 4891 l 34 0 M 4445 4744 l 33 0 l 33 0 M 4511 4918 l 32 0 l 32 0 M 4575 4718 l 42 0  M 4617 4489 l 52 0 M 4669 4790 l 30 0 M 4699 4963 l 30 0 M 4729 4718 l 40 0 M 4769 4756 l 38 0 M 4807 4718 l 38 0  M 4845 4561 l 47 0 M 4892 4744 l 27 0 l 28 0 M 4947 4790 l 27 0 M 4974 4672 l 35 0 M 5009 4489 l 43 0  M 5052 4790 l 26 0 M 5078 4688 l 26 0 M 5104 4790 l 25 0 M 5129 4756 l 33 0 M 5162 4734 l 41 0 l 40 0  M 5243 4828 l 23 0 M 5266 4862 l 24 0 M 5290 4616 l 38 0 M 5328 4544 l 31 0 M 5359 4662 l 37 0 M 5396 4744 l 22 0  M 5418 4718 l 29 0 M 5447 4756 l 29 0 M 5476 4744 l 22 0 M 5498 4499 l 56 0 M 5554 4583 l 55 0 M 5609 4718 l 26 0  M 5635 4672 l 27 0 M 5662 4828 l 20 0 M 5682 4689 l 19 0 M 5701 4578 l 45 0 M 5746 4561 l 32 0 M 5778 4617 l 31 0  M 5809 4561 l 31 0 M 5840 4744 l 18 0 M 5858 4571 l 36 0 M 5894 4404 l 42 0 M 5936 4413 l 52 0 M 5988 4616 l 23 0  M 6011 4378 l 73 0 M 6084 4291 l 59 0 M 6143 4489 l 27 0 M 6170 4469 l 47 0 M 6217 4718 l 21 0 M 6238 4499 l 41 0  M 6279 4544 l 20 0 M 6299 4503 l 54 0 M 6353 4515 l 30 0 M 6383 4443 l 28 0 M 6411 4341 l 43 0 M 6454 4315 l 46 0  M 6500 4213 l 90 0 M 6590 3864 l 87 0 M 904 4226 l 0 331 M 1311 4188 l 0 276 M 1618 4587 l 0 217 M 1748 4822 l 0 164  M 1855 4753 l 0 185 M 1956 4997 l 0 121 M 2053 4997 l 0 121 M 2147 5042 l 0 111 M 2236 4981 l 0 124 M 2322 5055 l 0 108  M 2406 4790 l 0 173 M 2486 4981 l 0 124 M 2563 4822 l 0 164 M 2638 5013 l 0 117 M 2711 5042 l 0 111 M 2782 5028 l 0 113  M 2850 5080 l 0 103 M 2916 4997 l 0 121 M 2981 4997 l 0 121 M 3044 4944 l 0 133 M 3105 4822 l 0 164 M 3164 4852 l 0 155  M 3222 4902 l 0 143 M 3279 5055 l 0 108 M 3334 5013 l 0 117 M 3388 4963 l 0 128 M 3441 4710 l 0 199 M 3492 5080 l 0 103  M 3542 5042 l 0 111 M 3592 4944 l 0 133 M 3640 4753 l 0 185 M 3687 4710 l 0 199 M 3741 4586 l 0 217 M 3794 4790 l 0 173  M 3838 4659 l 0 217 M 3882 4596 l 0 241 M 3924 4753 l 0 185 M 3966 4878 l 0 149 M 4007 4963 l 0 128 M 4047 4596 l 0 241  M 4094 4718 l 0 173 M 4139 4823 l 0 163 M 4177 4963 l 0 128 M 4215 4710 l 0 199 M 4252 4823 l 0 163 M 4288 4596 l 0 241  M 4324 4823 l 0 163 M 4359 4659 l 0 217 M 4394 4596 l 0 241 M 4428 4790 l 0 173 M 4461 4596 l 0 241 M 4495 4596 l 0 241  M 4527 4823 l 0 163 M 4559 4823 l 0 163 M 4597 4587 l 0 217 M 4643 4273 l 0 330 M 4684 4659 l 0 217 M 4714 4878 l 0 149  M 4749 4587 l 0 217 M 4788 4638 l 0 199 M 4826 4587 l 0 217 M 4869 4387 l 0 275 M 4906 4596 l 0 241 M 4933 4596 l 0 241  M 4960 4658 l 0 217 M 4991 4524 l 0 241 M 5031 4273 l 0 330 M 5065 4659 l 0 216 M 5091 4515 l 0 275 M 5116 4659 l 0 217  M 5145 4638 l 0 199 M 5182 4625 l 0 185 M 5223 4625 l 0 185 M 5254 4710 l 0 199 M 5278 4753 l 0 185 M 5309 4468 l 0 241  M 5343 4329 l 0 329 M 5377 4531 l 0 217 M 5407 4596 l 0 241 M 5433 4587 l 0 217 M 5462 4638 l 0 199 M 5487 4596 l 0 241  M 5526 4350 l 0 241 M 5581 4464 l 0 199 M 5622 4587 l 0 217 M 5649 4524 l 0 241 M 5672 4710 l 0 199 M 5692 4515 l 0 275  M 5724 4447 l 0 217 M 5762 4387 l 0 275 M 5794 4468 l 0 241 M 5825 4387 l 0 275 M 5849 4596 l 0 241 M 5876 4423 l 0 240  M 5915 4189 l 0 330 M 5962 4240 l 0 275 M 6000 4443 l 0 275 M 6048 4229 l 0 241 M 6114 4075 l 0 330 M 6157 4273 l 0 330  M 6194 4321 l 0 241 M 6228 4587 l 0 217 M 6259 4350 l 0 241 M 6289 4329 l 0 329 M 6326 4385 l 0 199 M 6368 4342 l 0 274  M 6397 4228 l 0 329 M 6433 4125 l 0 330 M 6477 4099 l 0 330 M 6546 4039 l 0 276 M 6634 576 l 0 3463 "/>
</g>
<g style="color: rgb(0, 0, 0); fill: currentColor; stroke: currentColor; stroke-width: 8">

<path fill="none" d="M 742 4285 l 314 0 l 0 277 l 484 0 l 0 188 l 153 0 l 0 67 l 109 0 l 0 54 l 104 0 l 0 46  l 99 0 l 0 39 l 95 0 l 0 33 l 92 0 l 0 28 l 88 0 l 0 23 l 84 0 l 0 18 l 82 0  l 0 14 l 79 0 l 0 9 l 76 0 l 0 6 l 74 0 l 0 9 l 72 0 l 0 6 l 69 0 l 0 3  l 67 0 l 0 -4 l 66 0 l 0 -8 l 63 0 l 0 -3 l 62 0 l 0 3 l 61 0 l 0 5 l 58 0  l 0 6 l 58 0 l 0 5 l 55 0 l 0 -12 l 55 0 l 0 -28 l 53 0 l 0 -19 l 52 0 l 0 -13  l 51 0 l 0 -27 l 50 0 l 0 -44 l 49 0 l 0 -47 l 48 0 l 0 -28 l 47 0 l 0 -4 l 60 0  l 0 6 l 45 0 l 0 5 l 44 0 l 0 3 l 43 0 l 0 0 l 42 0 l 0 -2 l 42 0 l 0 -7  l 40 0 l 0 -9 l 40 0 l 0 -8 l 53 0 l 0 -3 l 38 0 l 0 0 l 38 0 l 0 -2 l 37 0  l 0 -2 l 37 0 l 0 -4 l 36 0 l 0 -5 l 35 0 l 0 -5 l 35 0 l 0 -6 l 35 0 l 0 -4  l 34 0 l 0 -3 l 33 0 l 0 -4 l 33 0 l 0 -4 l 32 0 l 0 -6 l 32 0 l 0 -6 l 42 0  l 0 -6 l 52 0 l 0 -5 l 30 0 l 0 -4 l 30 0 l 0 -5 l 40 0 l 0 -5 l 38 0 l 0 -6  l 38 0 l 0 -7 l 47 0 l 0 -6 l 27 0 l 0 -6 l 28 0 l 0 -5 l 27 0 l 0 -6 l 35 0  l 0 -7 l 43 0 l 0 -6 l 26 0 l 0 -5 l 26 0 l 0 -5 l 25 0 l 0 -6 l 33 0 l 0 -8  l 41 0 l 0 -9 l 40 0 l 0 -8 l 23 0 l 0 -6 l 24 0 l 0 -8 l 38 0 l 0 -9 l 31 0  l 0 -9 l 37 0 l 0 -9 l 22 0 l 0 -7 l 29 0 l 0 -10 l 29 0 l 0 -7 l 22 0 l 0 -13  l 56 0 l 0 -20 l 55 0 l 0 -15 l 26 0 l 0 -10 l 27 0 l 0 -9 l 20 0 l 0 -8 l 19 0  l 0 -15 l 45 0 l 0 -17 l 32 0 l 0 -15 l 31 0 l 0 -15 l 31 0 l 0 -12 l 18 0 l 0 -14  l 36 0 l 0 -20 l 42 0 l 0 -24 l 52 0 l 0 -20 l 23 0 l 0 -26 l 73 0 l 0 -38 l 59 0  l 0 -26 l 27 0 l 0 -24 l 47 0 l 0 -23 l 21 0 l 0 -23 l 41 0 l 0 -24 l 20 0 l 0 -30  l 54 0 l 0 -36 l 30 0 l 0 -25 l 28 0 l 0 -33 l 43 0 l 0 -41 l 46 0 l 0 -67 l 90 0  l 0 -94 l 87 0 M 742 4285 l 314 0 M 1056 4562 l 484 0 M 1540 4750 l 153 0 M 1693 4817 l 109 0 M 1802 4871 l 104 0  M 1906 4917 l 99 0 M 2005 4956 l 95 0 M 2100 4989 l 92 0 M 2192 5017 l 88 0 M 2280 5040 l 84 0 M 2364 5058 l 82 0  M 2446 5072 l 79 0 M 2525 5081 l 76 0 M 2601 5087 l 74 0 M 2675 5096 l 72 0 M 2747 5102 l 69 0 M 2816 5105 l 67 0  M 2883 5101 l 66 0 M 2949 5093 l 63 0 M 3012 5090 l 62 0 M 3074 5093 l 61 0 M 3135 5098 l 58 0 M 3193 5104 l 58 0  M 3251 5109 l 55 0 M 3306 5097 l 55 0 M 3361 5069 l 53 0 M 3414 5050 l 52 0 M 3466 5037 l 51 0 M 3517 5010 l 50 0  M 3567 4966 l 49 0 M 3616 4919 l 48 0 M 3664 4891 l 47 0 M 3711 4887 l 60 0 M 3771 4893 l 45 0 M 3816 4898 l 44 0  M 3860 4901 l 43 0 l 42 0 M 3945 4899 l 42 0 M 3987 4892 l 40 0 M 4027 4883 l 40 0 M 4067 4875 l 53 0  M 4120 4872 l 38 0 l 38 0 M 4196 4870 l 37 0 M 4233 4868 l 37 0 M 4270 4864 l 36 0 M 4306 4859 l 35 0  M 4341 4854 l 35 0 M 4376 4848 l 35 0 M 4411 4844 l 34 0 M 4445 4841 l 33 0 M 4478 4837 l 33 0 M 4511 4833 l 32 0  M 4543 4827 l 32 0 M 4575 4821 l 42 0 M 4617 4815 l 52 0 M 4669 4810 l 30 0 M 4699 4806 l 30 0 M 4729 4801 l 40 0  M 4769 4796 l 38 0 M 4807 4790 l 38 0 M 4845 4783 l 47 0 M 4892 4777 l 27 0 M 4919 4771 l 28 0 M 4947 4766 l 27 0  M 4974 4760 l 35 0 M 5009 4753 l 43 0 M 5052 4747 l 26 0 M 5078 4742 l 26 0 M 5104 4737 l 25 0 M 5129 4731 l 33 0  M 5162 4723 l 41 0 M 5203 4714 l 40 0 M 5243 4706 l 23 0 M 5266 4700 l 24 0 M 5290 4692 l 38 0 M 5328 4683 l 31 0  M 5359 4674 l 37 0 M 5396 4665 l 22 0 M 5418 4658 l 29 0 M 5447 4648 l 29 0 M 5476 4641 l 22 0 M 5498 4628 l 56 0  M 5554 4608 l 55 0 M 5609 4593 l 26 0 M 5635 4583 l 27 0 M 5662 4574 l 20 0 M 5682 4566 l 19 0 M 5701 4551 l 45 0  M 5746 4534 l 32 0 M 5778 4519 l 31 0 M 5809 4504 l 31 0 M 5840 4492 l 18 0 M 5858 4478 l 36 0 M 5894 4458 l 42 0  M 5936 4434 l 52 0 M 5988 4414 l 23 0 M 6011 4388 l 73 0 M 6084 4350 l 59 0 M 6143 4324 l 27 0 M 6170 4300 l 47 0  M 6217 4277 l 21 0 M 6238 4254 l 41 0 M 6279 4230 l 20 0 M 6299 4200 l 54 0 M 6353 4164 l 30 0 M 6383 4139 l 28 0  M 6411 4106 l 43 0 M 6454 4065 l 46 0 M 6500 3998 l 90 0 M 6590 3904 l 87 0 M 904 4285 l 0 0 M 1311 4562 l 0 0  M 1618 4750 l 0 0 M 1748 4817 l 0 0 M 1855 4871 l 0 0 M 1956 4917 l 0 0 M 2053 4956 l 0 0 M 2147 4989 l 0 0  M 2236 5017 l 0 0 M 2322 5040 l 0 0 M 2406 5058 l 0 0 M 2486 5072 l 0 0 M 2563 5081 l 0 0 M 2638 5087 l 0 0  M 2711 5096 l 0 0 M 2782 5102 l 0 0 M 2850 5105 l 0 0 M 2916 5101 l 0 0 M 2981 5093 l 0 0 M 3044 5090 l 0 0  M 3105 5093 l 0 0 M 3164 5098 l 0 0 M 3222 5104 l 0 0 M 3279 5109 l 0 0 M 3334 5097 l 0 0 M 3388 5069 l 0 0  M 3441 5050 l 0 0 M 3492 5037 l 0 0 M 3542 5010 l 0 0 M 3592 4966 l 0 0 M 3640 4919 l 0 0 M 3687 4891 l 0 0  M 3741 4887 l 0 0 M 3794 4893 l 0 0 M 3838 4898 l 0 0 M 3882 4901 l 0 0 M 3924 4901 l 0 0 M 3966 4899 l 0 0  M 4007 4892 l 0 0 M 4047 4883 l 0 0 M 4094 4875 l 0 0 M 4139 4872 l 0 0 M 4177 4872 l 0 0 M 4215 4870 l 0 0  M 4252 4868 l 0 0 M 4288 4864 l 0 0 M 4324 4859 l 0 0 M 4359 4854 l 0 0 M 4394 4848 l 0 0 M 4428 4844 l 0 0  M 4461 4841 l 0 0 M 4495 4837 l 0 0 M 4527 4833 l 0 0 M 4559 4827 l 0 0 M 4597 4821 l 0 0 M 4643 4815 l 0 0  M 4684 4810 l 0 0 M 4714 4806 l 0 0 M 4749 4801 l 0 0 M 4788 4796 l 0 0 M 4826 4790 l 0 0 M 4869 4783 l 0 0  M 4906 4777 l 0 0 M 4933 4771 l 0 0 M 4960 4766 l 0 0 M 4991 4760 l 0 0 M 5031 4753 l 0 0 M 5065 4747 l 0 0  M 5091 4742 l 0 0 M 5116 4737 l 0 0 M 5145 4731 l 0 0 M 5182 4723 l 0 0 M 5223 4714 l 0 0 M 5254 4706 l 0 0  M 5278 4700 l 0 0 M 5309 4692 l 0 0 M 5343 4683 l 0 0 M 5377 4674 l 0 0 M 5407 4665 l 0 0 M 5433 4658 l 0 0  M 5462 4648 l 0 0 M 5487 4641 l 0 0 M 5526 4628 l 0 0 M 5581 4608 l 0 0 M 5622 4593 l 0 0 M 5649 4583 l 0 0  M 5672 4574 l 0 0 M 5692 4566 l 0 0 M 5724 4551 l 0 0 M 5762 4534 l 0 0 M 5794 4519 l 0 0 M 5825 4504 l 0 0  M 5849 4492 l 0 0 M 5876 4478 l 0 0 M 5915 4458 l 0 0 M 5962 4434 l 0 0 M 6000 4414 l 0 0 M 6048 4388 l 0 0  M 6114 4350 l 0 0 M 6157 4324 l 0 0 M 6194 4300 l 0 0 M 6228 4277 l 0 0 M 6259 4254 l 0 0 M 6289 4230 l 0 0  M 6326 4200 l 0 0 M 6368 4164 l 0 0 M 6397 4139 l 0 0 M 6433 4106 l 0 0 M 6477 4065 l 0 0 M 6546 3998 l 0 0  M 6634 3904 l 0 0 "/>
<text transform="translate(370,2317) scale(1,-1) rotate(-90)"><tspan class="fn" style="font-size: 886%;">counts s<tspan style="font-size: 60%;" dy="-0.6em">−1<tspan style="font-size: 166.667%;" dy="+0.36em"> keV<tspan style="font-size: 60%;" dy="-0.6em">−1<tspan style="font-size: 166.667%;" dy="+0.36em"/></tspan></tspan></tspan></tspan></text>
<text transform="translate(3255,215) scale(1,-1)"><tspan class="fn" style="font-size: 886%;">Energy (keV)</tspan></text>
<text transform="translate(2841,5442) scale(1,-1)"><tspan class="fn" style="font-size: 886%;"><tspan class="fR">data and folded model</tspan></tspan></text>
</g>
<g style="color: rgb(0, 0, 0); fill: currentColor; stroke: currentColor; stroke-width: 4">
<text transform="translate(6387,46) scale(1,-1)"><tspan class="fn" style="font-size: 531.6%;">root 30−Jul−2025 10:35</tspan></text>
</g>
<!-- _PGPLOT_SVG_ATEND: viewBox="          225.691483            45.374001          7366.381836          5600.615723" -->
</svg>